<?xml version="1.0" encoding="UTF-8" standalone="no"?>
<!DOCTYPE svg PUBLIC "-//W3C//DTD SVG 1.1//EN" "http://www.w3.org/Graphics/SVG/1.1/DTD/svg11.dtd">
<svg width="100%" height="100%" viewBox="0 0 128 128" version="1.1" xmlns="http://www.w3.org/2000/svg" xmlns:xlink="http://www.w3.org/1999/xlink" xml:space="preserve" xmlns:serif="http://www.serif.com/" style="fill-rule:evenodd;clip-rule:evenodd;stroke-linejoin:round;stroke-miterlimit:2;">
    <path d="M87.295,89.022C88.058,86.405 87.767,84.007 86.495,82.226C85.332,80.591 83.37,79.646 81.007,79.537L36.27,78.956C35.979,78.956 35.725,78.811 35.579,78.593C35.433,78.375 35.397,78.084 35.47,77.793C35.615,77.357 36.051,77.03 36.524,76.993L81.661,76.412C87.003,76.158 92.818,71.833 94.853,66.527L97.433,59.804C97.542,59.513 97.578,59.223 97.506,58.932C94.6,45.774 82.862,35.962 68.834,35.962C55.896,35.962 44.921,44.321 40.996,55.914C38.336,53.933 35.03,53.013 31.729,53.334C25.514,53.952 20.536,58.931 19.918,65.145C19.773,66.744 19.882,68.307 20.245,69.76C10.104,70.051 2,78.337 2,88.549C2,89.458 2.073,90.366 2.182,91.275C2.246,91.707 2.618,92.032 3.054,92.038L85.624,92.038C86.096,92.038 86.533,91.711 86.678,91.238L87.295,89.022Z" style="fill:rgb(243,128,32);fill-rule:nonzero;"/>
    <path d="M101.542,60.275C101.142,60.275 100.706,60.275 100.306,60.311C100.015,60.311 99.761,60.529 99.652,60.82L97.908,66.889C97.145,69.506 97.436,71.904 98.708,73.685C99.871,75.32 101.833,76.265 104.196,76.374L113.718,76.955C114.009,76.955 114.263,77.1 114.409,77.318C114.554,77.536 114.591,77.863 114.518,78.118C114.373,78.554 113.937,78.881 113.464,78.918L103.54,79.5C98.161,79.754 92.383,84.079 90.348,89.385L89.621,91.238C89.476,91.601 89.73,91.965 90.13,91.965L124.219,91.965C124.619,91.965 124.982,91.711 125.091,91.311C125.672,89.203 126,86.986 126,84.697C126,71.25 115.025,60.275 101.542,60.275" style="fill:rgb(250,174,64);fill-rule:nonzero;"/>
</svg>
